# xmcd
#
# Track frame offsets:
#	150
#	41570
#	70716
#	88741
#	108525
#	128668
#	159991
#	181607
#
# Disc length: 2565 seconds
#
# Revision: 1
# Processed by: cddbd v1.5.2PL0 Copyright (c) Steve Scherf et al.
# Submitted via: audiograbber 1.83.01
#
DISCID=5c0a0308
DTITLE=Oscar Peterson - Live In Chicago - Kind Of Peterson CD-8
DYEAR=1958
DGENRE=Jazz
TTITLE0=Oscar Peterson - Bluesology (Jackson)
TTITLE1=Oscar Peterson - I've Got The World On A String (Arlen/Koehler)
TTITLE2=Oscar Peterson - When Lights Are Low (Carter/Williams)
TTITLE3=Oscar Peterson - Every (Unknown)
TTITLE4=Oscar Peterson - Budo (Powell/Davis)
TTITLE5=Oscar Peterson - Duaboul (Unknown)
TTITLE6=Oscar Peterson - The Lady Is A Tramp (Rodgers/Hart)
TTITLE7=Oscar Peterson - We'll Be Together Again (Fisher/Laine)
EXTD=YEAR: 1958
EXTT0=
EXTT1=
EXTT2=
EXTT3=
EXTT4=
EXTT5=
EXTT6=
EXTT7=
PLAYORDER=
